name C:\Users\antoi\Documents\MyRepositories\upper-imu-dc\Results\main_tracking\Case_79\kinematics.mot
datacolumns 10
datarows 23
range 4.62000000 4.84000000
endheader 
time	clav_prot	clav_elev	scapula_abduction	scapula_elevation	scapula_upward_rot	scapula_winging	plane_elv	shoulder_elv	axial_rot	
          4.62000000	        -45.29469511	         -7.15271017	        -19.67620338	        -14.11792343	         54.42745284	         -5.79814626	         -0.63484086	         53.17932344	         20.64908715	
          4.63000000	        -45.36263910	         -7.10500083	        -19.61306034	        -14.09762045	         54.65956546	         -5.87987675	         -0.41685889	         53.41140781	         20.55366323	
          4.64000000	        -45.42988275	         -7.05807574	        -19.55126841	        -14.07741951	         54.88828126	         -5.96031283	         -0.19750319	         53.64301314	         20.45889829	
          4.65000000	        -45.49644103	         -7.01185891	        -19.49096248	        -14.05727379	         55.11347024	         -6.03952170	          0.02333048	         53.87410317	         20.36511838	
          4.66000000	        -45.56235605	         -6.96630158	        -19.43223961	        -14.03716201	         55.33510184	         -6.11757018	          0.24563716	         54.10462414	         20.27241546	
          4.67000000	        -45.62769216	         -6.92138200	        -19.37515497	        -14.01708718	         55.55324024	         -6.19452162	          0.46930750	         54.33450238	         20.18065388	
          4.68000000	        -45.69252873	         -6.87710327	        -19.31972052	        -13.99707352	         55.76803203	         -6.27043278	          0.69414354	         54.56364552	         20.08949840	
          4.69000000	        -45.75695183	         -6.83348837	        -19.26590626	        -13.97716136	         55.97968871	         -6.34535184	          0.91988326	         54.79194562	         19.99845962	
          4.70000000	        -45.82104545	         -6.79057381	        -19.21364450	        -13.95740084	         56.18846464	         -6.41931717	          1.14623075	         55.01928473	         19.90695244	
          4.71000000	        -45.88488314	         -6.74840147	        -19.16283649	        -13.93784460	         56.39463289	         -6.49235748	          1.37288761	         55.24554171	         19.81435974	
          4.72000000	        -45.94852009	         -6.70701029	        -19.11335963	        -13.91854053	         56.59846167	         -6.56449247	          1.59958139	         55.47059932	         19.72009273	
          4.73000000	        -46.01198604	         -6.66642863	        -19.06507305	        -13.89952528	         56.80019411	         -6.63573368	          1.82608808	         55.69435053	         19.62364104	
          4.74000000	        -46.07527947	         -6.62666754	        -19.01782223	        -13.88081882	         57.00003184	         -6.70608538	          2.05224879	         55.91670297	         19.52461099	
          4.75000000	        -46.13836393	         -6.58771667	        -18.97144329	        -13.86242115	         57.19812287	         -6.77554518	          2.27798015	         56.13758187	         19.42275167	
          4.76000000	        -46.20116769	         -6.54954261	        -18.92576889	        -13.84431126	         57.39455339	         -6.84410464	          2.50327778	         56.35693150	         19.31796996	
          4.77000000	        -46.26358690	         -6.51208898	        -18.88063648	        -13.82644763	         57.58934320	         -6.91175095	          2.72821488	         56.57471494	         19.21033556	
          4.78000000	        -46.32549137	         -6.47527859	        -18.83589611	        -13.80877052	         57.78244655	         -6.97846873	          2.95293669	         56.79091185	         19.10007657	
          4.79000000	        -46.38673266	         -6.43901738	        -18.79141828	        -13.79120578	         57.97375722	         -7.04424199	          3.17765174	         57.00551621	         18.98756654	
          4.80000000	        -46.44715342	         -6.40319958	        -18.74710009	        -13.77366967	         58.16311807	         -7.10905623	          3.40261876	         57.21853507	         18.87330247	
          4.81000000	        -46.50659704	         -6.36771313	        -18.70286884	        -13.75607386	         58.35033458	         -7.17290049	          3.62813025	         57.42998865	         18.75787515	
          4.82000000	        -46.56491655	         -6.33244422	        -18.65868243	        -13.73832979	         58.53519120	         -7.23576978	          3.85449457	         57.63991152	         18.64193448	
          4.83000000	        -46.62198168	         -6.29728115	        -18.61452611	        -13.72035222	         58.71746929	         -7.29766697	          4.08201737	         57.84835497	         18.52615221	
          4.84000000	        -46.67768334	         -6.26211684	        -18.57040597	        -13.70206166	         58.89696410	         -7.35860400	          4.31098406	         58.05539017	         18.41118546	
